<?xml version="1.0" encoding="utf-8"?>
<!-- Generator: Adobe Illustrator 26.0.2, SVG Export Plug-In . SVG Version: 6.00 Build 0)  -->
<svg version="1.1" id="outline" xmlns="http://www.w3.org/2000/svg" xmlns:xlink="http://www.w3.org/1999/xlink" x="0px" y="0px"
	 viewBox="0 0 430 430" style="enable-background:new 0 0 430 430;" xml:space="preserve">
<style type="text/css">
	.st0{fill:url(#SVGID_1_);}
	.st1{fill:url(#SVGID_00000111877702582473906900000015490537359538917038_);}
	.st2{fill:url(#SVGID_00000053527533671410069250000008993208331022825357_);}
	.st3{fill:url(#SVGID_00000142150697048278790280000014852693691773766057_);}
	.st4{fill:url(#SVGID_00000169524015769277827120000017197660013836586395_);}
	.st5{fill:url(#SVGID_00000066483217490261950490000016684140822552090296_);}
	.st6{fill:url(#SVGID_00000157276705509930526600000006317276091886496906_);}
	.st7{fill:url(#SVGID_00000146492684074079050460000006235174716032007316_);}
	.st8{fill:url(#SVGID_00000057129011710767804670000007526308094557454261_);}
	.st9{fill:url(#SVGID_00000151531455070827646490000001124105399901023908_);}
	.st10{fill:url(#SVGID_00000127732010303212416150000006529452396060461201_);}
	.st11{fill:url(#SVGID_00000158751670629732546340000010661792624937332653_);}
	.st12{fill:url(#SVGID_00000057854826126276658450000001430382844117199747_);}
	.st13{fill:url(#SVGID_00000127744345319735966310000015230561448392780208_);}
	.st14{fill:url(#SVGID_00000030448957680454049910000000231337637546318217_);}
	.st15{fill:url(#SVGID_00000020383232356603102400000013317395755578893970_);}
	.st16{fill:url(#SVGID_00000073000496059431507190000010729932054124437133_);}
	.st17{fill:url(#SVGID_00000141445770464675126820000001073786140968617903_);}
	.st18{fill:url(#SVGID_00000022536394190521497940000006653626917973382809_);}
	.st19{fill:url(#SVGID_00000146479508506948301190000008567476611579077267_);}
	.st20{fill:url(#SVGID_00000013903467788348974110000015324563330480231864_);}
	.st21{fill:url(#SVGID_00000178193487578919896980000016493342819271115450_);}
	.st22{fill:url(#SVGID_00000008149137992838380640000018393218737473137846_);}
	.st23{fill:url(#SVGID_00000039849598016647162510000006082951812997918894_);}
	.st24{fill:url(#SVGID_00000011737515078247844330000016267786821859898550_);}
	.st25{fill:url(#SVGID_00000005224996009576189040000008849257296951085997_);}
	.st26{fill:url(#SVGID_00000135662000356381363000000010653313490302412959_);}
	.st27{fill:url(#SVGID_00000181784323059758534490000006714121156516763800_);}
	.st28{fill:url(#SVGID_00000052082243748189263470000007354754386750615983_);}
	.st29{fill:url(#SVGID_00000140010450078498499920000005438526135680087994_);}
	.st30{fill:url(#SVGID_00000035497378602235257600000007274571329826117254_);}
	.st31{fill:url(#SVGID_00000155827887217094797380000008698828750256715955_);}
	.st32{fill:url(#SVGID_00000152967698359679727680000014647197377842482353_);}
	.st33{fill:url(#SVGID_00000048459498041145878910000000736284157373876670_);}
	.st34{fill:url(#SVGID_00000123415840279877835520000005998637602404241806_);}
	.st35{fill:url(#SVGID_00000041283646943845438750000006956640011658742411_);}
	.st36{fill:url(#SVGID_00000047038178722887952390000011188269569036536706_);}
	.st37{fill:url(#SVGID_00000168107526388669339310000006060776018881520805_);}
	.st38{fill:url(#SVGID_00000140002097751293045230000004550304106624583604_);}
	.st39{fill:url(#SVGID_00000136407147652207614590000001360685461287494079_);}
	.st40{fill:url(#SVGID_00000144311919955018216530000008061918618156303270_);}
	.st41{fill:url(#SVGID_00000042733527058714493870000007724905977654626726_);}
	.st42{fill:url(#SVGID_00000150078123456384957930000002932959668690351531_);}
	.st43{fill:url(#SVGID_00000175286329662018911060000003554714818467032710_);}
	.st44{fill:url(#SVGID_00000168074507931636242850000001900671926474913673_);}
	.st45{fill:url(#SVGID_00000133518463300171534000000009085765643664026257_);}
	.st46{fill:url(#SVGID_00000057846549162136492730000016832112709767608449_);}
	.st47{fill:url(#SVGID_00000057146650434938632190000015062128346738747833_);}
	.st48{fill:url(#SVGID_00000098924834573695117400000013399226009967856798_);}
	.st49{fill:url(#SVGID_00000003800625890044060740000009194282987133252773_);}
	.st50{fill:url(#SVGID_00000178916902001394371170000014244190959924426902_);}
	.st51{fill:url(#SVGID_00000097495303816129956190000002389019914448891037_);}
	.st52{fill:url(#SVGID_00000101083784264568824350000001713428027850897299_);}
	.st53{fill:url(#SVGID_00000065075343381784451020000005790748417875191168_);}
	.st54{fill:url(#SVGID_00000163032057989442128050000012960079622497653686_);}
	.st55{fill:url(#SVGID_00000025437848591892244720000010224762783838373803_);}
	.st56{fill:url(#SVGID_00000111875540414771477190000015766742057164304296_);}
	.st57{fill:url(#SVGID_00000010280515509197904920000011921273969315088040_);}
	.st58{fill:url(#SVGID_00000124119760751074848360000011042975345222888838_);}
	.st59{fill:url(#SVGID_00000183947168608892582620000003192397570243191224_);}
	.st60{fill:url(#SVGID_00000173858732436294087380000012284532265312317614_);}
	.st61{fill:url(#SVGID_00000065061597866481260490000008456578312902364547_);}
	.st62{fill:url(#SVGID_00000010287959781311506920000007497429297269383866_);}
	.st63{fill:url(#SVGID_00000105423151108953022770000001520527480613209777_);}
	.st64{fill:url(#SVGID_00000117676176978161219560000012228392598468819125_);}
	.st65{fill:url(#SVGID_00000091707927040288817310000004769061583941247642_);}
	.st66{fill:url(#SVGID_00000042730320803289227030000014128726959516730045_);}
	.st67{fill:url(#SVGID_00000121991820537111998720000011366955517443467707_);}
	.st68{fill:url(#SVGID_00000084497044384554913000000004678733109607650461_);}
	.st69{fill:url(#SVGID_00000145738596269318508810000010162787882838121871_);}
	.st70{fill:url(#SVGID_00000096762508507344714550000002608925227001100722_);}
	.st71{fill:url(#SVGID_00000076573543942328497660000004851155119175155867_);}
	.st72{fill:url(#SVGID_00000095330065944477394370000010923042118083855510_);}
	.st73{fill:url(#SVGID_00000052098190757346519420000012253747434835249308_);}
	.st74{fill:url(#SVGID_00000058554453159690923930000001495597659062875323_);}
	.st75{fill:url(#SVGID_00000063620283236820400740000000923057252968780212_);}
	.st76{fill:url(#SVGID_00000125571654951631999190000011438954651629532070_);}
	.st77{fill:url(#SVGID_00000071522472754036051660000011252655969385150873_);}
	.st78{fill:url(#SVGID_00000154403183258767249240000000075367233720950950_);}
	.st79{fill:url(#SVGID_00000067205751970421104470000000490499983481252262_);}
	.st80{fill:url(#SVGID_00000100349899281756945350000011915787162215494814_);}
	.st81{fill:url(#SVGID_00000003064283519136512450000014771718814770279857_);}
	.st82{fill:url(#SVGID_00000152263936388749899160000000812467055725015181_);}
	.st83{fill:url(#SVGID_00000031914805588098526370000018073214488962354820_);}
	.st84{fill:url(#SVGID_00000030470601887275277810000008619346124289531290_);}
	.st85{fill:url(#SVGID_00000080904919096794730360000010671006851504941758_);}
	.st86{fill:url(#SVGID_00000078733790414735157520000010305779150220040082_);}
	.st87{fill:url(#SVGID_00000070817209542659659020000011767487068295075205_);}
	.st88{fill:url(#SVGID_00000139978008244461443760000000936637334122971806_);}
	.st89{fill:url(#SVGID_00000106848410348362348460000015083017701708794500_);}
	.st90{fill:url(#SVGID_00000016044095205068483670000016508189454274808453_);}
	.st91{fill:url(#SVGID_00000094585033179975062660000016188757936562066307_);}
	.st92{fill:url(#SVGID_00000147940551079879745630000008185275239292384148_);}
	.st93{fill:url(#SVGID_00000128448142720759812760000001881499829384407990_);}
	.st94{fill:url(#SVGID_00000141420981526650002060000015392056136461499018_);}
	.st95{fill:url(#SVGID_00000089547363565506446630000012922355969762199976_);}
</style>
<linearGradient id="SVGID_1_" gradientUnits="userSpaceOnUse" x1="89.8627" y1="89.8626" x2="340.1373" y2="340.1372">
	<stop  offset="0" style="stop-color:#cb5eee"/>
	<stop  offset="1" style="stop-color:#4be1ec"/>
</linearGradient>
<path class="st0" d="M322.6,95.94H107.4c-31.49,0-57.1,25.62-57.1,57.1v123.92c0,31.49,25.62,57.1,57.1,57.1h215.2
	c31.49,0,57.1-25.62,57.1-57.1V153.04C379.7,121.55,354.08,95.94,322.6,95.94z M367.7,276.96c0,24.87-20.23,45.1-45.1,45.1H107.4
	c-24.87,0-45.1-20.23-45.1-45.1V153.04c0-24.87,20.23-45.1,45.1-45.1h215.2c24.87,0,45.1,20.23,45.1,45.1V276.96z M133.91,184.33
	v43.1c0,14.12-11.49,25.6-25.6,25.6c-14.12,0-25.6-11.49-25.6-25.6c0-3.31,2.69-6,6-6s6,2.69,6,6c0,7.5,6.1,13.6,13.6,13.6
	c7.5,0,13.6-6.1,13.6-13.6v-43.1c0-3.31,2.69-6,6-6S133.91,181.02,133.91,184.33z M204.04,229.29c-0.01-0.01-0.01-0.03-0.02-0.04
	l-19.61-47.22c-0.92-2.21-3.07-3.67-5.47-3.7c-0.02,0-0.05,0-0.07,0c-2.37,0-4.52,1.4-5.48,3.57l-27.83,62.7
	c-1.34,3.03,0.02,6.57,3.05,7.92c3.03,1.34,6.57-0.02,7.92-3.05l5.27-11.86h32.71l4.87,11.73c0.96,2.31,3.19,3.7,5.54,3.7
	c0.77,0,1.55-0.15,2.3-0.46c3.06-1.27,4.51-4.78,3.24-7.84L204.04,229.29z M167.11,225.61l11.57-26.07l10.83,26.07H167.11z
	 M334.47,227.93c-0.01-0.01-0.01-0.03-0.02-0.04l-19.61-47.22c-0.92-2.21-3.07-3.67-5.47-3.7c-0.02,0-0.05,0-0.07,0
	c-2.37,0-4.52,1.4-5.48,3.57l-27.83,62.7c-1.34,3.03,0.02,6.57,3.05,7.92c3.03,1.34,6.57-0.02,7.92-3.05l5.27-11.86h32.71
	l4.87,11.73c0.96,2.31,3.19,3.7,5.54,3.7c0.77,0,1.55-0.15,2.3-0.46c3.06-1.27,4.51-4.78,3.24-7.84L334.47,227.93z M297.54,224.24
	l11.57-26.07l10.83,26.07H297.54z M274.56,186.63l-26.04,62.7c-0.92,2.21-3.07,3.67-5.47,3.7c-0.02,0-0.05,0-0.07,0
	c-2.37,0-4.52-1.4-5.48-3.57l-27.83-62.7c-1.34-3.03,0.02-6.57,3.05-7.92c3.03-1.34,6.57,0.02,7.92,3.05l22.16,49.93l20.68-49.8
	c1.27-3.06,4.78-4.51,7.84-3.24C274.38,180.06,275.83,183.57,274.56,186.63z"/>
</svg>
